<?xml version="1.0" encoding="UTF-8"?>
<svg id="Layer_1" xmlns="http://www.w3.org/2000/svg" version="1.1" viewBox="0 0 120 53.8">
  <!-- Generator: Adobe Illustrator 29.8.6, SVG Export Plug-In . SVG Version: 2.1.1 Build 1)  -->
  <defs>
    <style>
      .st0 {
        fill: #fff;
      }

      .st1 {
        fill: #005b43;
      }
    </style>
  </defs>
  <path class="st1" d="M20,29.5l-.2,1.5h-2.3v.9c-.1,0,1.8,0,1.8,0l-.2,1.4h-1.9l-.3,2.1h-1.8l.9-5.9h4.1ZM23.9,35.3v-.4c-.2.2-.5.3-.7.4-.3,0-.6.1-.9.1-.7,0-1.3-.2-1.7-.7-.5-.5-.7-1.2-.6-1.9,0-.4,0-.9.2-1.3.1-.4.3-.7.6-1,.3-.3.6-.6,1-.7.4-.2.8-.3,1.3-.3.6,0,1.3.2,1.8.5.5.4.7.9.8,1.5h-1.6c0-.2-.1-.4-.3-.5-.2-.1-.4-.2-.6-.2-.4,0-.8.2-1,.6-.3.4-.4.9-.4,1.4,0,.3,0,.6.3.9.2.2.5.3.7.3.2,0,.4,0,.6-.2.2-.1.3-.3.4-.5h-.7l.2-1.2h2.4l-.5,3h-1.2ZM14.4,17.7h10.5c1.2,0,1.4.6,1.4,1.4v9.2c0,0,0,.2-.2.2,0,0,0,0,0,0h-11.7c0,0-.2,0-.2-.2,0,0,0,0,0,0v-10.4c0,0,0-.2.2-.2,0,0,0,0,0,0h0ZM13.9,17.2h11.4c.8,0,1.5.6,1.5,1.4,0,0,0,0,0,0v17.8c0,0,0,.2-.2.2,0,0,0,0,0,0h-12.7c0,0-.2,0-.2-.2,0,0,0,0,0,0v-19.1c0,0,0-.2.2-.2,0,0,0,0,0,0h0Z"/>
  <path class="st1" d="M83.3,30.7c-.2.1-.5.2-.8.2h-1.1l.2-1.4h1c.2,0,.5,0,.7.2.1.1.2.3.2.5,0,.2,0,.4-.2.6h0ZM106.8,20.8h0c0-.7-.3-1.3-.9-1.8-1.3-.8-3-.8-4.3,0-.5.4-.8,1-.8,1.6,0,.5.1.9.4,1.3.5.5,1.1.8,1.7,1.1l.4.2c.6.2.9.5.9.8,0,.2,0,.3-.2.4-.2.1-.4.2-.6.2-.3,0-.6,0-.8-.2-.2-.1-.3-.4-.3-.6h-2.2c0,.7.3,1.4.9,1.9.7.5,1.5.7,2.4.7.8,0,1.6-.2,2.3-.6.5-.4.8-1.1.8-1.8,0-.4-.1-.9-.4-1.2-.3-.4-.8-.7-1.3-.9-.2,0-.4-.2-.7-.3-.7-.3-1.1-.6-1.1-.8,0-.1,0-.3.2-.4.1-.1.3-.1.5-.1.2,0,.5,0,.6.2.2.1.3.3.3.6h2.2ZM85.4,30.9c.2-.4.4-.8.3-1.3,0-.6-.2-1.1-.6-1.5-.6-.4-1.3-.5-2-.5h-3.3l-1.1,7.4h2.2l.4-2.7h.6c.2,0,.5,0,.7,0,0,0,.2,0,.3.1.2.2.3.4.3.6v.2s0,0,0,.1v.8c-.1,0-.1.2-.1.2v.3c0,0,0,.1,0,.2h2.1v-.6c.1,0,.1,0,.1-.2v-.7c0,0,0-.2,0-.2v-.2c0-.3,0-.6-.2-.8-.2-.2-.4-.4-.7-.5.4-.2.8-.4,1-.8ZM101.6,29.3c.1-.1.3-.2.5-.1.2,0,.5,0,.7.2.2.1.3.3.3.6h2.2c0-.7-.4-1.4-.9-1.8-1.4-.8-3.1-.8-4.4,0-.5.4-.8,1-.8,1.7,0,.5.2.9.5,1.3.5.5,1.1.9,1.8,1.1l.3.2c.6.3.9.5.9.8,0,.2,0,.3-.2.4-.2.1-.4.2-.6.2-.3,0-.6,0-.8-.2-.2-.1-.3-.4-.3-.6h-2.3c0,.7.3,1.4.9,1.9.7.5,1.6.7,2.4.7.8,0,1.7-.2,2.4-.6.6-.4.9-1.1.8-1.8,0-.5-.1-.9-.4-1.2-.4-.4-.8-.7-1.3-.9l-.7-.3c-.7-.3-1.1-.6-1.1-.8,0-.1,0-.3.2-.4h0ZM94.3,35.1h2.4l1.1-7.4h-2.4l-1.1,7.4ZM89,32.7l1.1-2.7.4,2.7h-1.5ZM89.3,27.7l-3.6,7.4h2.4l.4-.9h2.4v.9h2.4l-1.5-7.4h-2.4ZM71.4,35.1h6l.3-1.8h-3.6l.2-1.2h3l.3-1.7h-3l.2-1h3.4l.3-1.8h-5.7s-1.1,7.4-1.1,7.4ZM67.6,29.3c.3,0,.6,0,.8.3.2.2.4.4.4.7h2.2c0-.8-.4-1.5-1-2-.7-.5-1.6-.8-2.4-.7-.6,0-1.2,0-1.7.3-.5.2-1,.6-1.3,1-.3.4-.6.9-.8,1.3-.2.6-.3,1.1-.3,1.7,0,.9.3,1.8.9,2.5.6.6,1.5,1,2.3.9.4,0,.8,0,1.1-.2.3-.1.6-.3.9-.6v.6h1.6l.6-4h-3.2l-.2,1.5h1c-.1.3-.3.5-.6.6-.2.1-.5.2-.8.2-.4,0-.7-.1-1-.4-.2-.3-.4-.7-.3-1.2,0-.7.1-1.3.5-1.9.3-.4.8-.7,1.3-.7h0ZM53.5,21.6c-.2.1-.5.2-.8.2h-1.1l.2-1.4h1c.2,0,.5,0,.7.2.2.1.2.3.2.5,0,.2,0,.4-.2.6h0ZM55.5,21.9c.2-.4.4-.8.4-1.3,0-.6-.2-1.1-.6-1.5-.6-.4-1.3-.5-2.1-.5h-3.3l-1.1,7.4h2.2l.4-2.7h.6c.2,0,.5,0,.7,0,0,0,.2,0,.3.1.2.2.3.4.3.6v.2s0,0,0,.1v.7c-.1,0-.1.2,0,.2v.4c0,0,0,.1,0,.2h2.1v-.6c.1,0,.1,0,.1-.2v-.7c0,0,0-.2,0-.3v-.2c0-.3,0-.6-.2-.8-.2-.2-.4-.4-.7-.5.4-.2.8-.4,1-.8h0ZM89.3,26h2.3l.8-5.5h2l.3-1.9h-6.3l-.3,1.9h2.1l-.8,5.5h0ZM96.8,23.6h-.7l.8-1.8.3-.9.4,2.7h-.8ZM98.6,18.6h-2.3l-3.3,7-.2.4h2.4l.3-.9h2.3v.9h2.3l-1.4-7.4ZM59.6,23.7h-.8l.8-1.8.3-.9.4,2.7h-.7ZM59.6,18.6h-.5l-3.3,7-.2.4h2.3l.3-.9h2.3v.9h2.3l-1.4-7.4h-1.8ZM46.3,21.6c-.2.1-.5.2-.8.2h-1.1l.2-1.4h1c.3,0,.5,0,.7.2.2.1.2.3.2.5,0,.2,0,.4-.2.6h0ZM48,19.1c-.6-.4-1.3-.5-2-.5h-3.3l-1.1,7.4h2.2l.4-2.7h.6c.2,0,.5,0,.7,0,0,0,.2,0,.2.1.2.2.3.4.3.6v.2s0,0,0,.1v.7c-.1,0-.1.2-.1.2v.3c0,0,0,.1,0,.2h2.1v-.6c.1,0,.1,0,.1-.2v-.7c0,0,0-.2,0-.3v-.2c0-.3,0-.6-.2-.8-.2-.2-.4-.4-.7-.5.4-.2.8-.5,1-.8.2-.4.4-.8.3-1.3,0-.6-.2-1.1-.6-1.5h0ZM34.8,20.5l.3-1.8h-5.1l-1.1,7.4h2.3l.4-2.6h2.4l.3-1.8h-2.4l.2-1.2h2.8ZM41.4,20.4l.3-1.8h-5.6l-1.1,7.4h5.8l.3-1.8h-3.5v-1.2h3.1l.3-1.6h-2.9l.2-1h3.3ZM66.1,20.6v1l.6,4.5h1.6l1.8-4.4c0-.1.1-.3.2-.5s.1-.4.2-.6l-1,5.5h2l1.1-7.4h-2.8l-1.7,4c0,.1-.1.3-.1.4,0,.1,0,.3,0,.5,0,0,0,0,0-.1v-.8l-.5-4h-2.8l-1.1,7.4h2.1l.6-5.5h0ZM75.2,24.2l.2-1.2h3l.3-1.6h-3l.2-1h3.3l.3-1.8h-5.6l-1.1,7.4h5.8l.3-1.8h-3.5ZM82.3,22.2c0,0,0-.2,0-.3v-.5c0,.2,0,.3,0,.5s0,.3,0,.3l1.7,3.8h2.1l1.1-7.4h-2.2l-.6,3.8v.4c0,.2,0,.3,0,.5,0-.1,0-.3,0-.4,0-.1,0-.3-.1-.4l-1.7-3.8h-2.1l-1.1,7.4h2.1l.6-3.8h0Z"/>
  <path class="st0" d="M27.7,37.5h-14.3c-.2,0-.3-.1-.3-.3,0,0,0,0,0,0v-20.6c0-.2.1-.3.3-.3,0,0,0,0,0,0h12.8c.9,0,1.7.8,1.7,1.7v19.2c0,.2-.1.3-.3.3,0,0,0,0,0,0Z"/>
  <path class="st1" d="M25.6,17.1h-11.4c0,0-.2,0-.2.2h0v19c0,0,0,.2.2.2h12.7c0,0,.2,0,.2-.2v-17.7c0-.8-.6-1.5-1.4-1.5,0,0,0,0,0,0ZM19.5,31.8l-.2,1.4h-1.9l-.3,2.1h-1.8l.9-5.9h4.1l-.2,1.5h-2.2v.9c-.1,0,1.8,0,1.8,0ZM14.9,22.2l.2-.4c0-.2.2-.1.2-.1l1.1.3,1.4.9c.2,0,.2.2.2.2v.8c-.1,0-.2.1-.2.2l-.4.2s-.1,0-.1,0l-2-1.2c-.2,0-.2-.1-.2-.1l-.2-.7ZM17.2,25.4c.2.1.4.3.6.4.1,0,.2.2.1.3,0,0,0,1.1-.1,2.2h0c0-.9.1-2.1.1-2.1,0-.1,0-.3-.2-.4-.1,0-.4-.3-.5-.4s-.1,0-.1.1c0,0,0,1.9,0,2.7h-.1c0-1.2,0-2.8,0-2.8,0-.2,0-.3.2-.2ZM22.2,33.7c.3.3.9.4,1.3.1.2-.1.3-.3.4-.5h-.8l.2-1.2h2.4l-.5,3h-1.1v-.4c-.2.2-.5.3-.7.4-.3,0-.6.1-.8.1-.7,0-1.3-.2-1.7-.7-.4-.5-.7-1.2-.6-1.9,0-.4,0-.9.2-1.3.1-.4.3-.7.6-1,.3-.3.6-.6,1-.7.4-.2.8-.3,1.3-.3.6,0,1.3.2,1.8.5.5.4.7.9.8,1.5h-1.6c0-.2-.1-.4-.3-.5-.2-.1-.4-.2-.6-.2-.4,0-.7.2-.9.5-.3.4-.4.9-.4,1.4,0,.3,0,.6.3.9h0ZM26.6,28.2c0,0,0,.2-.2.2,0,0,0,0,0,0h-1.8c0-.3,0-.5.1-.6,0-.2.2-.4.3-.6.1-.1.7-.5.8-.8.1-.4.1-.7,0-1.1,0-.2-.2-.3-.3-.3h-.3c.3,1,.2,1.8-.4,2.1-.2.1-.4.3-.4.5,0,0,0,.3-.1.7h0c0,0,0-.2,0-.3,0-.2,0-.4.2-.7.2-.3.3-.3.5-.4.2-.2.6-.5.3-1.8,0,0,0-.1-.1,0s-.2.5-.3.7-.2.2-.4,0c-.3-.2-.5-.5-.5-.8,0-.2.1-.5.2-.6s.2-.4.2-.4c0,0,0,0,0,0-.4,0-.8.3-.9.7-.1.9.4,1.8,1.2,2.2-.4-.1-.7-.3-.9-.7,0,.2,0,.2,0,1.1,0,.2-.1.6-.2.9h-1.9v-.5c0,0,0,0,0,0v.4h-.1c0,0,0-.4,0-.4-.3,0-.7-.5-1-.7l-.2,1.1h-1.8v-.3l.4-3.7c0,0,.1-.2.2-.2.2,0,.4-.3.4-.5v-1c0,0,0,0,0,0v.7c0,0-.1,0-.2.1h-.3c0,.1,0,.2,0,0v-.5s0,0,0,0l-.4.2s0,0,0,0l-1.8-1.2s0,0,0-.1v-.2s0,0-.2,0l-.9-.2s0,0-.1,0l-.3.8s0,0,0,.2v.6c.1,0,.1.1.1.2,0,0,0,.1,0,.2h0c0,.2,0,.2,0,.2l.2.2h0s.8.6.8.6h.1c0,.2.1.2.1.3v.7s0,.2-.2.1l-.3-.2s0,0,0,0c0,.3.1.6.4.9.5.5.5.5.5,1.1v.8h-2c0,0-.2,0-.2-.2,0,0,0,0,0,0v-10.4c0,0,0-.2.2-.2,0,0,0,0,0,0h10.5c1.2,0,1.4.7,1.4,1.4v9.2h0Z"/>
  <path class="st1" d="M15.5,26.4s0,0,0,0c0,.2.1.5.3.6,0,0,.2.2.3,0,0,0,0,0,0-.1,0,0,0,0,0,0,0,0,0,0,0,0,0,0,0,0,0-.1,0,0,0,0,0,0s0,0,0,0c0,0,0,0,0-.1,0,0,0,0,0,0,0,0,0,0,0,0,0,0,0,0,0,0h-.1c0-.1,0,.4,0,.4,0,0,0,.2-.2,0-.1-.1-.2-.3-.2-.4v-1.2h-.2c0-.1,0,0,0,0,0,0,0,0,0,.1h0s0,0,0,.1c0,0,0,0,0,.1h0s0,0,0,.1c0,0,0,.1,0,.1h0s0,0,0,.1c0,0,0,0,0,.1h0s0,0,0,0c0,0,0,0,0,.2Z"/>
  <path class="st1" d="M22,25.6c0-.7,0-1.4,0-2.1,0-.5.2-.9.4-1.4,0-.3-.2-.4-.5-.6-.5-.2-1.2-.6-1.3-.6s-.2,1.2-.2,1.7c0,.7-.2,1.4-.4,2.2,1-.8,1.9.6,2,.7ZM20.7,24.1c0-.2.3-2.3.3-2.5s0-.2.2-.2c.2,0,.4.2.5.3,0,0,0,.2,0,.5s-.3,2.3-.3,2.4-.3,0-.3,0c0,0-.4-.2-.4-.2s0-.1,0-.3h0Z"/>
  <path class="st1" d="M21.2,19.7h.2c0,0,0-.2,0-.2l-.2-.2c-.6,0-.7.1-.7.1l.6.4h0Z"/>
  <path class="st1" d="M21.3,24.6c0-.1.3-2,.3-2.3,0-.2,0-.3,0-.5-.1-.1-.3-.3-.5-.3-.1,0-.2,0-.2.2s-.3,2.3-.3,2.4,0,.2,0,.3.4.2.4.2c0,0,.2.1.3,0Z"/>
  <path class="st1" d="M20.8,18c0,0-.1,0-.1,0,.2.1.5.2.7.4-.2-.2-.4-.3-.6-.4Z"/>
  <path class="st1" d="M15.4,24.2c.2.2.4.3.7.3h0c0,0-.7-.6-.7-.6,0,.1,0,.2.1.3Z"/>
  <path class="st1" d="M15.8,26.8s0,0,0-.1v-.5c-.1-.1-.2-.3-.2-.5,0,0,0-.3,0-.4h0s0,1,0,1c0,0,0,.4.2.5Z"/>
  <path class="st1" d="M15.3,23l1.8,1.1s0,0,.1,0h.4c0-.2.1-.2.1-.3v-.7c0,0,.1,0,0-.2l-1.3-.9-1-.3s0,0-.1,0l-.2.4v.6c.1,0,0,0,.3.1Z"/>
  <path class="st1" d="M16.1,26.5c.1,0,0,0,0,.1s0,0,0,0,0,0,0,0,0,.2,0,.2,0,0,0,0-.1.2-.2.1c0,0,.4.2.6,0s0-.4,0-.5c0,0-.1-.2-.2-.2,0,0,0,0,0,0Z"/>
  <path class="st1" d="M15.1,24.7c.1.3.4.5.6.6.1,0,.3.1.4.1v-.6c0,0,0-.2-.1-.2,0,0-.2,0-.6-.2-.2,0-.4-.3-.3-.6h0c0,.3,0,.6,0,.9Z"/>
  <path class="st1" d="M17.4,20.5h.1s0,0,0,0h.1s0,0,0,0h.1s0,0,0,0h.1s0,0,0,0h.1s0,0,0,0h.2c.1-.3,0-.7-.2-.9,0-.2-.2-.1-.2-.1-.2.3-.6,0-.6,0l-1.2-.4v.2c-.2.1-.2.2-.2.2l.2.4c0,0,.2-.1.3,0h0c0,0,.1,0,.1,0h0c0,0,.1,0,.1,0h0c0,0,.1,0,.1,0h0Z"/>
  <path class="st1" d="M23.2,21.8c-.1,0-.2,0-.2,0h-.1c0,0,0,0,0,.2,0,.1,0,.2,0,.3,0,.2,0,.4,0,.6,0,0,2,.3,2,.3.2,0,.3-.2.4-.3l-.9-.4-1.1-.7Z"/>
  <path class="st1" d="M24.6,25.3c0-.1,0-.3,0-.4,0,0,.3-.6.3-.7s0-.2-.3-.2c-.2,0-.5,0-.7.2.1,0,.3-.1.4-.1,0,0,.1,0,.1.2,0,0,0,0,0,0l-.4.8c0,.1,0,.3,0,.4.1.2.3.4.5.6,0,0,.2,0,.2,0,0,0,0-.2.1-.3-.2,0-.3-.2-.4-.4Z"/>
  <path class="st1" d="M22.7,22.5c0-.2.2-.6,0-.7s-1.6-.9-1.5-.9-.5,0-.5.1,1.7.7,1.8.9,0,.3,0,.7c-.2.7-.4,1.5-.3,2.3,0,1,0,.9,0,1s.5,0,.6,0c0-.1,0-.2,0-.4,0-.5.3-2.1.3-2.3,0,0-.2,0-.3,0,0,0,0-.4.1-.5Z"/>
  <polygon class="st1" points="22.8 21.4 22.5 21.4 23 21.7 23.1 21.7 24.4 22.5 25.3 22.9 22.8 21.3 22.8 21.4"/>
  <polygon class="st1" points="22.7 21.3 22.8 20.4 22.8 20.3 22.8 20 22.7 20 22.7 20.3 22.7 20.4 22.6 21.4 22.7 21.3"/>
  <path class="st1" d="M22.1,25.9s0,0,0-.2c-.2-.5-.6-.8-1.1-1,1.2.5,1.2,1.8,1.1,2.3s-.2.8-.4.8c.3,0,.6-.1.9-.3.2,0,.4-.6.2-1.8-.2,0-.4,0-.6,0Z"/>
  <path class="st1" d="M25.1,20.5c0-.1-.4-.5-.7-.8s-.9-.9-1-1-1-.6-1.3-.7c-.1,0-.3-.1-.4,0h.1c.6.2,1.1.5,1.6.9.1.1,1.2,1.2,1.3,1.3.2.2.4.5.6.7.1.2.2.3.3.5,0-.2-.2-.4-.3-.6,0-.1-.1-.2-.2-.3Z"/>
  <path class="st1" d="M24,19.5c-.2-.3-.4-.5-.7-.7-.3-.2-1.1-.6-1.3-.7s-.3-.1-.3,0c0,.1,0,.3,0,.4h0s-.2-.2-.2-.2l-.6-.3c0,.3.7,1.2.9,1.3,0,.1-.1,1.4-.1,1.4l1.1.6s0-.7.1-.9,0-.1,0-.2,0-.4,0-.4c.2.1.5.2.7.4,0,0,0,.1,0,.1l1.3.7h.2c.2,0,.4.1.6.2-.1-.3-.3-.5-.5-.8,0-.1-.5-.6-.9-1Z"/>
  <path class="st1" d="M22,26.8c0-.6-.1-1.2-.6-1.7-.2-.2-.9-.7-1.3-.1-.2.4-.3.8-.3,1.2,0,.2,0,.4.2.6.3.3.5.5.8.7,0,0,.2.4.5.3s.5,0,.5-1.1ZM21.6,26.3c0,.2,0,.3-.1.5,0,.1-.2.2-.3.3-.1,0-.3,0-.4,0-.1,0-.2-.1-.4-.2-.2,0-.3-.2-.4-.3-.1-.2-.2-.4-.1-.6,0-.2,0-.3,0-.5,0-.2,0-.3.1-.5.1-.2.3-.3.5-.3.2,0,.4.2.5.3.1.1.2.2.3.3,0,0,.1.2.1.3,0,0,0,.3,0,.6h0Z"/>
  <path class="st1" d="M16.6,20.5c0,0-.1,0-.1,0h0s-.3-.5-.3-.5c0,0,0-.2,0-.3l.2-.2,1.4.5c.1,0,.2,0,.3-.1,0,0,0,0,.1,0,0,0,1.2-.4,1.2-.4h-.2c-.2-.2-.4-.4-.6-.6-1.1-.8-1.6-.7-1.9-.7-1.2.2-1.2,1.6-1.2,1.6v1.5s.9.2.9.2c0-.6,0-.7,0-.7,0,0,0-.1,0-.2Z"/>
  <path class="st1" d="M18,22.4h0c0-.1-.1-.1-.1-.1h0c0-.1-.1-.1-.1-.1h0c0-.1-.2-.1-.2-.1h0c0-.1-.1-.1-.1-.1h0c0-.1-.1,0-.1,0h0c0-.1-.2-.1-.2-.1h0c0-.1-.1-.1-.1-.1h0c0-.1-.1-.1-.1-.1h0v.3s0,0,0,.2l1.7,1.1v-.4c0,0,0-.1,0-.1h-.2Z"/>
  <path class="st1" d="M16.6,21.2l.7-.3v-.4h-.1c0,0-.1,0-.1,0h0c0,0-.1,0-.1,0h0c0,0,0,0,0,0,0,0,.1.2,0,.4v.5Z"/>
  <polygon class="st1" points="19.5 21.9 19.4 21.8 19.2 21.8 19.2 21.7 19 21.7 19 21.6 18.9 21.6 18.8 21.5 18.7 21.5 18.6 21.4 18.5 21.4 18.4 21.3 18.3 21.3 18.2 21.2 18.1 21.2 18.1 21.1 18 21.1 17.9 21 17.8 21 17.8 20.8 17.6 20.8 16.6 21.3 16.7 21.3 16.7 21.4 16.9 21.4 16.9 21.6 17.1 21.5 17.1 21.7 17.2 21.7 17.2 21.8 17.4 21.8 17.4 21.9 17.6 21.9 17.6 22 17.8 22 17.8 22.1 18 22.1 18 22.3 18.2 22.3 18.4 22.4 19.5 21.9"/>
  <path class="st1" d="M18.7,20.3c.1.2.1.5,0,.7.4,0,.8-.2,1.2-.4,0-.1,0-.2,0-.3,0-.2,0-.5-.3-.7,0,0,0,0,0-.1-.1,0-.9.3-1.2.4.1.1.2.3.3.4Z"/>
  <path class="st1" d="M21.2,25.1c-.1-.1-.3-.2-.5-.3-.2,0-.4,0-.5.2,0,.1-.1.3-.1.4,0,.2,0,.3,0,.5,0,.2,0,.4,0,.6.1.1.2.2.4.3.1,0,.2.1.4.2.1,0,.3,0,.4,0,0,0,.2-.2.2-.3,0-.2.1-.3.1-.5,0-.3,0-.5,0-.6,0-.1,0-.2-.1-.3,0-.1-.2-.2-.3-.3Z"/>
  <path class="st1" d="M18.3,23l.5-.2s.1,0,.1,0v.5h.3c0-.1,0-.7,0-.7,0,0,0,0,0,0h.2c0-.1.1-.6.1-.6l-1.2.5v.4Z"/>
</svg>