<?xml version="1.0" encoding="UTF-8"?>
<svg id="Layer_1" xmlns="http://www.w3.org/2000/svg" version="1.1" viewBox="0 0 120 53.8">
  <!-- Generator: Adobe Illustrator 29.8.6, SVG Export Plug-In . SVG Version: 2.1.1 Build 1)  -->
  <defs>
    <style>
      .st0 {
        fill: #6d6d6d;
        fill-rule: evenodd;
      }
    </style>
  </defs>
  <path class="st0" d="M81,22.5c0,0,0-.2,0-.3,0-.1,0-.2,0-.3v-.2c0,.2,0,.3,0,.4,0,.1,0,.2,0,.3l1.6,3.6h2l1-6.9h-2l-.5,3.5c0,.1,0,.2,0,.4,0,.1,0,.3,0,.4,0-.1,0-.3,0-.4,0-.1,0-.3-.1-.4l-1.6-3.5h-2l-1,6.9h2l.5-3.5ZM74.3,24.4v-1.1h2.9l.2-1.5h-2.8l.2-.9h3.1l.2-1.6h-5.2l-1,6.9h5.5l.2-1.7h-3.3ZM65.7,21c0,.2,0,.4,0,.5,0,.2,0,.3,0,.4l.5,4.2h1.5l1.7-4.1c0-.1,0-.3.2-.4,0-.2.1-.3.2-.5l-.9,5.1h1.9l1-6.9h-2.7l-1.6,3.7c0,.1,0,.2-.1.4,0,.1,0,.3,0,.5,0,0,0,0,0-.1s0,0,0-.2,0-.2,0-.3v-.3s-.5-3.7-.5-3.7h-2.6l-1,6.9h1.9l.6-5.1ZM42.6,20.8l.3-1.6h-5.2l-1,6.9h5.4l.2-1.7h-3.3v-1.1h2.9l.2-1.5h-2.8v-.9h3.3ZM36.5,20.9l.3-1.7h-4.8l-1,6.9h2.1l.3-2.5h2.2l.3-1.6h-2.2l.2-1.1h2.6ZM48.9,19.7c-.4-.3-1-.4-1.9-.4h-3.1l-1,6.9h2.1l.4-2.5h.6c.3,0,.5,0,.6,0,0,0,.2,0,.2.1.2.1.2.3.2.6v.2s0,0,0,.1v.7c-.1,0-.1.2-.1.2,0,0,0,.1,0,.2,0,0,0,.1,0,.2,0,0,0,.1,0,.1h2v-.6c.1,0,.1,0,.1-.1v-.7c0,0,0-.2,0-.2v-.2c0-.3,0-.6-.2-.7-.1-.2-.3-.3-.6-.5.4-.2.7-.4,1-.8.2-.3.3-.7.3-1.2,0-.6-.2-1.1-.6-1.4ZM47.2,22c-.2.1-.4.2-.7.2h-1l.2-1.3h.9c.3,0,.5,0,.7.1.1,0,.2.2.2.5s0,.4-.2.5ZM59.7,19.2h-.5l-3.1,6.5-.2.4h2.2l.3-.8h2.2v.8h2.1l-1.4-6.9h-1.7ZM59.7,23.9h-.7s.7-1.7.7-1.7l.3-.8.4,2.5h-.7ZM96.2,19.2h-2.2l-3.1,6.5-.2.4h2.2l.3-.8h2.2v.8h2.1l-1.4-6.9ZM94.5,23.9h-.7s.7-1.7.7-1.7l.3-.8.4,2.5h-.7ZM87.5,26.1h2.2l.7-5.1h1.8l.3-1.8h-5.9l-.3,1.8h1.9l-.8,5.1ZM55.9,22.2c.2-.3.3-.7.3-1.2,0-.6-.2-1.1-.6-1.4-.4-.3-1-.4-1.9-.4h-3.1l-1,6.9h2.1l.4-2.5h.6c.3,0,.5,0,.6,0,0,0,.2,0,.2.1.2.1.2.3.2.6v.2s0,0,0,.1v.7c-.1,0-.1.2-.1.2,0,0,0,.1,0,.2,0,0,0,.1,0,.2,0,0,0,.1,0,.1h2v-.6c.1,0,.1,0,.1-.1v-.7c0,0,0-.2,0-.2v-.2c0-.3,0-.6-.2-.7-.1-.2-.3-.3-.6-.5.4-.2.7-.4,1-.8ZM53.9,22c-.2.1-.4.2-.7.2h-1l.2-1.3h.9c.3,0,.5,0,.7.1.1,0,.2.2.2.5s0,.4-.2.5ZM67.1,29.2c.3,0,.6,0,.8.2.2.2.3.4.4.6h2.1c0-.8-.4-1.5-1-1.9-.6-.4-1.3-.7-2.3-.7s-1.1.1-1.6.3c-.5.2-.9.5-1.2.9-.3.4-.6.8-.7,1.3-.2.5-.2,1-.2,1.6,0,1,.3,1.8.8,2.3.6.6,1.3.9,2.2.9s.7,0,1.1-.2c.3-.1.6-.3.9-.5v.5h1.5l.6-3.7h-3l-.2,1.4h1c-.1.3-.3.4-.5.6-.2.1-.5.2-.7.2-.4,0-.7-.1-.9-.4-.2-.2-.3-.6-.3-1.1,0-.7.2-1.3.4-1.8.3-.4.7-.7,1.2-.7ZM70.8,34.6h5.6l.2-1.7h-3.4v-1.1h3l.3-1.5h-2.9l.2-.9h3.2l.3-1.6h-5.4l-1.1,6.9ZM87.5,27.6l-3.4,6.9h2.3l.3-.8h2.2v.8h2.2l-1.4-6.9h-2.2ZM87.2,32.3l1.1-2.6.4,2.6h-1.4ZM92.2,34.6h2.2l1.1-6.9h-2.2l-1.1,6.9ZM99,29.1c.1,0,.3-.1.5-.1.3,0,.5,0,.6.2.1.1.2.3.3.5h2.1c0-.7-.3-1.3-.9-1.7-.5-.4-1.2-.6-2.1-.6s-1.6.2-2.1.6c-.5.4-.7.9-.7,1.5s.1.9.4,1.2c.3.3.8.7,1.7,1,0,0,.2,0,.3.1.6.2.9.5.9.7s0,.3-.2.4c-.1,0-.3.1-.6.1s-.6,0-.8-.2c-.2-.1-.3-.3-.3-.6h0s-2.2,0-2.2,0c0,.8.3,1.3.8,1.8.6.4,1.3.6,2.3.6s1.7-.2,2.2-.6c.5-.4.8-.9.8-1.6s-.1-.8-.4-1.2c-.3-.3-.7-.6-1.2-.9-.2,0-.4-.2-.7-.3-.7-.3-1.1-.5-1.1-.7s0-.2.2-.3ZM83.8,30.7c.2-.3.3-.7.3-1.2,0-.6-.2-1.1-.6-1.4-.4-.3-1-.4-1.9-.4h-3.1l-1,6.9h2.1l.4-2.5h.6c.3,0,.5,0,.6,0,0,0,.2,0,.2.1.2.1.2.3.2.6v.2s0,0,0,.1v.7c-.1,0-.1.2-.1.2,0,0,0,.1,0,.2,0,0,0,.1,0,.2,0,0,0,.1,0,.1h2v-.6c.1,0,.1,0,.1-.1v-.7c0,0,0-.2,0-.2v-.2c0-.3,0-.6-.2-.7-.1-.2-.3-.3-.6-.5.4-.2.7-.4,1-.8ZM103.9,21.3h0c0-.7-.3-1.3-.8-1.6-.5-.4-1.2-.6-2-.6s-1.5.2-2,.5c-.5.4-.7.9-.7,1.5s.1.9.4,1.2c.3.3.8.7,1.6,1,0,0,.2,0,.3.1.6.2.8.5.8.7s0,.3-.2.4c-.1,0-.3.1-.5.1s-.6,0-.8-.2c-.2-.1-.3-.3-.3-.6h0s-2.1,0-2.1,0c0,.8.3,1.3.8,1.7.5.4,1.3.6,2.2.6s1.6-.2,2.1-.6c.5-.4.8-.9.8-1.6s-.1-.8-.4-1.2c-.3-.3-.7-.6-1.2-.8-.2,0-.4-.2-.6-.3-.7-.3-1-.5-1-.7s0-.2.2-.3c.1,0,.3-.1.4-.1.3,0,.5,0,.6.2.1.1.2.3.3.5h2ZM81.9,30.4c-.2.1-.4.2-.7.2h-1l.2-1.3h.9c.3,0,.5,0,.7.1.1,0,.2.2.2.5s0,.4-.2.5Z"/>
  <path class="st0" d="M29.7,36.8h-13.4c-.1,0-.3-.1-.3-.3v-19.2c0-.1.1-.3.3-.3h12c.9,0,1.6.7,1.6,1.6v17.9c0,.1-.1.3-.3.3ZM23.3,18.6c0,0-.1,0-.1,0,.4.2.7.3.7.3-.1-.1-.3-.2-.5-.3,0,0,0,0,0,0ZM26.7,25c0,0,0,.3,0,.4,0,0,0,0,0,0,0,.1,0,.2.3.3,0,0,0,0,0,.1,0,0,0,.1,0,.1,0,0-.1,0-.2,0,0,0-.3-.3-.5-.5,0-.1,0-.3,0-.4,0-.1.3-.7.3-.7,0,0,0-.2-.1-.2,0,0-.2,0-.4.1.2-.1.3-.2.6-.2.2,0,.3.2.3.2,0,0,0,0,0,.2h0s0,0,0,0h0c0,.2-.2.4-.2.5ZM28.7,28.1c0,0,0,.2-.2.2h-1.6c0-.3,0-.5.1-.5,0-.1.2-.4.3-.5,0,0,0,0,.2-.1h0c.2-.2.5-.4.6-.6.1-.4,0-.7,0-.9,0,0,0,0,0-.1,0-.1-.2-.3-.2-.3,0,0-.3,0-.3,0,.2.9.2,1.6-.4,1.9-.1,0-.3.2-.4.5,0,0,0,.3-.1.6h0c0,0,0-.2,0-.3,0-.3.1-.6.2-.6.1-.2.2-.3.3-.3,0,0,0,0,.1,0,.2-.2.5-.5.3-1.6,0,0,0-.1-.1,0,0,0,0,.2-.2.3h0c0,.1-.1.2-.1.3,0,.2-.2.2-.4,0-.2-.1-.4-.4-.5-.7,0-.2,0-.4.1-.5h0s0,0,0,0c0,0,0-.1,0-.2,0,0,0-.2,0-.2,0,0,0,0,0,0-.2,0-.8.1-.9.7-.1.6.2,1.5,1.1,2-.5-.2-.7-.5-.8-.6,0,0,0,0,0,0,0,.1,0,.3,0,.9,0,.2-.1.5-.2.9h-1.8v-.4c0,0,0,0,0,0v.4h-.1,0c0-.1,0-.4,0-.4-.2,0-.4-.2-.6-.4h0c-.1-.1-.2-.2-.3-.3l-.2,1h-1.7c0-.2,0-.3,0-.3l.3-3.4s.1-.2.2-.2c0,0,.3-.1.4-.4v-1c0,0,0,0,0,0v.6c0,0,0,0-.1,0,0,0-.3.1-.3.1h0s0,0,0-.1v-.5s0,0,0,0h-.4c0,.1,0,.1,0,.1,0,0-1.6-1.1-1.7-1.1,0,0,0,0,0-.1v-.2s0,0-.2,0l-.9-.2s0,0-.1,0l-.3.7s0,0,0,.2v.5c.1,0,.1.1.1.2,0,0,0,0,0,.2h0c0,.1,0,.2,0,.2l.2.2h0s0,0,0,0h0s0,0,0,0l.8.6h0s0,0,0,0h.1c0,.1,0,.2.1.3v.7s0,.2-.2.1l-.2-.2s0,0,0,0c0,0,0,.4.3.8.5.4.5.4.4,1h0c0,0,0,.9,0,.9h-1.8c0,0-.2,0-.2-.2v-9.7c0,0,0-.2.2-.2h9.8c1.1,0,1.3.6,1.3,1.3v8.6ZM18.8,24.6h0c0,0-.7-.6-.7-.6,0,0,0,.2.1.3.2.1.4.3.6.3ZM18,24s0,0,0,0h0c-.1.3,0,.8,0,.8.2.3.4.4.6.5,0,0,0,0,0,0,.2,0,.4,0,.4,0v-.6c0-.1,0-.2,0-.2,0,0,0,0,0,0,0,0-.2,0-.5-.2-.3-.2-.3-.4-.3-.5ZM24.6,33.2c.2.2.4.3.7.3s.4,0,.5-.2c.2,0,.3-.2.4-.4h-.7l.2-1.1h2.2l-.4,2.8h-1.1v-.4c-.2.2-.4.3-.7.4-.2,0-.5.1-.8.1-.7,0-1.2-.2-1.6-.7-.4-.5-.6-1-.6-1.8s0-.8.2-1.2c.1-.4.3-.7.5-1,.3-.3.6-.5.9-.7.3-.2.7-.2,1.2-.2.7,0,1.3.2,1.7.5.4.3.6.8.7,1.4h-1.5c0-.2-.1-.4-.3-.5-.2-.1-.3-.2-.6-.2-.4,0-.7.2-.9.5-.2.3-.3.8-.3,1.3s0,.6.2.8ZM19.9,25.5c.1,0,.4.3.5.4h0s0,0,0,0c.1,0,.1.2.1.3,0,0,0,1.1-.1,2h0c0-.8.1-2,.1-2,0-.1,0-.3-.1-.3-.1,0-.4-.3-.5-.3-.1,0-.1,0-.1.1v2.5h-.1c0-1.1,0-2.6,0-2.6,0-.1,0-.3.2-.2ZM17.8,22.5l.2-.4c0-.1.2-.1.2-.1l1,.3,1.3.9c.2,0,.1.2.1.2v.8c-.1.1-.2.1-.2.1l-.4.2c0,0-.1,0-.1,0l-1.8-1.1c-.2,0-.1-.1-.1-.1v-.6ZM22.1,31.5l-.2,1.3h-1.8l-.3,2h-1.7l.8-5.5h3.8l-.2,1.4h-2.1v.9c-.1,0,1.7,0,1.7,0ZM27.7,17.8h-10.6c0,0-.2,0-.2.2v17.8c0,0,0,.2.2.2h11.9c0,0,.2,0,.2-.2v-16.5c0-.6-.4-1.4-1.4-1.4ZM18.3,26.4s0,0,0,0c0,0,0-.1,0-.1,0,0,0-.1,0-.1h0s0,0,0,0c0,0,0-.1,0-.1h0c0,0,0,0,0,0,0,0,0-.1,0-.1h0s0,0,0,0c0,0,0-.1,0-.1h0s0,0,0,0c0,0,0-.1,0-.1h.2c0,0,0,1.2,0,1.2,0,.2.2.4.2.4.2.1.2,0,.2,0v-.5s.1.1.1.1c0,0,0,0,0,0,0,0,0,0,0,0,0,0,0,0,0,0,0,0,0,0,0,0,0,0,0,0,0,0,0,0,0,0,0,.1,0,0,0,0,0,0,0,0,0,0,0,0,0,0,0,0,0,0,0,0,0,0,0,0,0,0,0,.1,0,.1-.1.2-.3,0-.3,0-.3-.3-.3-.6-.3-.6ZM23.2,24.3c0-.2.3-2.1.3-2.3,0-.2,0-.2.2-.2.2,0,.5.2.5.3,0,0,0,.2,0,.5,0,.1,0,.4-.1.8,0,.6-.2,1.4-.2,1.5,0,.1-.3,0-.3,0,0,0-.3-.2-.4-.2,0,0,0-.1,0-.3ZM24.4,25.7c0,0,0-.1,0-.2h0c0-.3,0-.9,0-1.7,0-.3.2-.7.3-1h0c0-.1,0-.2,0-.3,0-.3-.2-.4-.4-.5-.3-.1-.8-.4-1-.5h0s0,0,0,0c0,0-.2,0-.2,0,0,0-.1.6-.2,1.1h0c0,.2,0,.4,0,.5,0,.6-.2,1.6-.3,2,.8-.7,1.6.3,1.8.6,0,0,0,0,0,0ZM23.8,20.2h-.2c0,0,0,0,0,0l-.6-.3s.1-.2.7-.1l.2.2v.3ZM23.8,24.8c0,0,.1-.8.2-1.4,0-.3,0-.6.1-.7,0-.3,0-.4,0-.5,0,0-.3-.2-.4-.3-.1,0-.1,0-.2.2,0,.2-.3,2.1-.3,2.3h0c0,.2,0,.2,0,.3,0,0,.3.2.3.2,0,0,.2.1.2,0ZM18.6,26.8s0,0,0,0v-.5s-.1-.2-.2-.4c0,0,0-.3,0-.4h0s0,1,0,1c0,0,0,.3.2.4ZM19.8,24.3l-1.7-1c-.1,0-.1-.1-.1-.1v-.5c-.1,0,0-.4,0-.4,0-.1.1,0,.1,0l.9.2,1.2.8c.2,0,.1.2.1.2v.7c0,.1-.2.1-.2.1h-.3c0,.1-.1.1-.1.1ZM18.9,26.5c0,0,0,0,0,.1h0c0,0,0,0,0,0,0,0,0,0,0,0,0,0,0,0,0,0,0,0,0,0,0,0,0,0,0,.1,0,.1,0,0,0,0,0,0,0,0-.1.2-.2.1,0,0,.4.2.5,0,.2-.2,0-.4,0-.5h0c0-.1-.2-.2-.2-.2,0,0,0,0,0,0ZM20.1,21h.1s0,0,0,0h.1s0,0,0,0h.1s0,0,0,0h.1s0,0,0,0h.1s0,0,0,0h.2c.2-.5-.2-.9-.2-.9,0-.2-.2,0-.2,0-.2.3-.5,0-.5,0l-1.1-.4h-.2c-.1.3,0,.3,0,.3l.2.3c.1-.2.3,0,.3,0h0c0,0,.1,0,.1,0h0c0,0,.1,0,.1,0h0c0,0,.1,0,.1,0h0ZM25.4,22.2s0,0,.2,0c.1,0,1,.6,1,.6,0,0,.8.4.9.4,0,0-.3.3-.4.3,0,0-1.9-.3-1.9-.3,0,0,0-.3,0-.5,0,0,0-.2,0-.3,0-.1,0-.2,0-.2,0,0,.1,0,.1,0,0,0,0,0,0,0ZM25.1,22.8s0,0,0-.1c0-.2.1-.4,0-.6-.1-.1-.7-.4-1.1-.7h0s0,0,0,0c-.2-.1-.3-.2-.3-.2,0,0-.5,0-.5.1,0,0,.2.1.5.2h0c.5.2,1.1.4,1.1.6.1.2,0,.3,0,.6,0,0,0,0,0,.1-.1.4-.3,1.2-.3,2.1,0,.8,0,.8,0,.9h0s0,0,0,0h0c0,0,.3,0,.4,0,0,0,0,0,0,0,0,0,0,0,0-.1,0,0,0-.1,0-.2,0-.4.3-2,.3-2.2-.1,0-.3,0-.3,0,0,0,0-.3,0-.5ZM24.9,21.8h.2c0,0,0-.1,0-.1l2.4,1.4-.8-.4-1.2-.7h-.1s-.4-.2-.4-.2ZM25,21.7v-.9c.1,0,0,0,0,0v-.2s0,0,0,0v.3s0,.1,0,.1v.9c-.1,0,0,0,0,0ZM24.5,25.9s0,0,0,0c0,0,.3,0,.4,0h0s0,0,0,0c0,0,.1,0,.2,0,.2,1.1,0,1.6-.2,1.6-.1,0-.7.3-.8.3.2,0,.3-.2.4-.8,0-.5,0-1.7-1.1-2.2.6.1.9.7,1.1.9,0,.1,0,.2,0,.2ZM27.3,20.9c0-.1-.4-.4-.7-.7h-.1q0-.1,0-.1h0c-.3-.3-.7-.8-.8-.8-.1,0-1-.5-1.2-.6-.3-.1-.4,0-.4,0,0,0,0,0,.1,0,.4.2,1.4.7,1.5.8.1.1,1.1,1.2,1.2,1.3,0,0,.5.5.6.7h0c.1.2.2.2.3.5,0,0-.1-.3-.2-.5,0-.1-.1-.2-.2-.2,0,0,0,0,0,0ZM25.9,19.7c0,0,.2.2.3.3.3.3.6.7.8.9,0,0,0,0,0,.1.2.2.3.4.5.7-.2,0-.5-.3-.5-.3h-.2c0,0-1.2-.6-1.2-.6,0,0,0,0,0-.1,0,0-.7-.3-.7-.3,0,0,0,.3,0,.4,0,0,0,0,0,0,0,0,0,0,0,.1,0,.2-.1.8-.1.8l-1-.5s.1-1.2.1-1.3c0,0,0,0,0-.1-.2-.3-.8-.9-.7-1.1l.6.3h.2c0,.1,0,.2,0,.2,0,0,0-.2,0-.4,0-.1,0-.1.3,0,.2.1,1,.5,1.2.6.1,0,.2.2.4.3ZM24,26.3c0,.3,0,.4-.1.5,0,0,0,0,0,0,0,0-.2.2-.2.3,0,0-.3,0-.4,0,0,0,0,0,0,0h0s0,0,0,0h0s0,0,0,0h0c0,0-.2,0-.3-.1-.1,0-.3-.1-.4-.3-.1-.2-.1-.4-.1-.6,0,0,0-.1,0-.2,0,0,0-.2,0-.3,0-.2,0-.2.1-.4,0-.1.3-.3.5-.2.2,0,.3.1.5.3,0,0,0,0,.1.1,0,0,.1.1.2.2,0,0,.1.2.1.3,0,0,0,.1,0,.3h0s0,0,0,0h0s0,0,0,0h0s0,0,0,0c0,0,0,.2,0,.3ZM24.4,26.8c0-.9-.4-1.4-.5-1.6-.2-.2-.8-.7-1.2-.1-.2.3-.2.7-.2,1,0,0,0,.1,0,.1,0,.3,0,.4.2.6.1.1.5.4.7.6h0s0,0,0,0h0c0,0,0,0,.1,0,0,0,0,0,0,0,0,0,.2.2.4.2h0s0,0,0,0h0c.3,0,.4,0,.5-1ZM19.2,20.9s.1-.1.1,0c0,.1,0,.2,0,.2,0,0,0,0,0,.6l-.9-.2v-1.4s0-1.3,1.2-1.5h0c.2,0,.8-.1,1.8.6,0,0,.3.3.6.5,0,0,0,0,.2,0,0,0-1.1.4-1.1.4,0,0,0,0-.1,0,0,0-.2.2-.3.1l-1.3-.4-.2.2s-.1.1,0,.3l.3.4s0,0,0,0ZM20.7,22.7h0c0-.1-.1-.1-.1-.1h0c0-.1-.1-.1-.1-.1h0c0-.1-.1-.1-.1-.1h0c0-.1-.1-.1-.1-.1h0c0-.1-.1-.1-.1-.1h0c0-.1-.1-.1-.1-.1h0c0-.1-.1-.1-.1-.1h0c0-.1,0-.1,0-.1h0c0,0,0,.3,0,.3,0,0,0,0,0,.1l1.5,1v-.4c0,0,0-.1,0-.1h-.2ZM19.9,21.4l-.6.3v-.4c.2-.2,0-.4,0-.4,0,0,0,0,0,0,0,0,0,0,0,0,0,0,0,0,0,0h.1s0,0,0,0h.1s0,0,0,0h0s0,.4,0,.4ZM22.1,22.3h-.2c0-.1-.1-.1-.1-.1h0c0-.1-.1-.1-.1-.1h0c0-.1-.1-.1-.1-.1h0c0-.1-.1,0-.1,0h0c0-.1-.1,0-.1,0h0c0-.1-.1-.1-.1-.1h0c0-.1-.1-.1-.1-.1h0c0-.1-.1-.1-.1-.1h0c0,0-.1,0-.1,0h0c0-.1-.1-.1-.1-.1l-1,.4h.1s0,.1,0,.1h.1s0,.1,0,.1h.1s0,.1,0,.1h.1s0,.1,0,.1h.1s0,.1,0,.1h.1s0,0,0,0h.2c0,.1.1.1.1.1h0c0,.1.2.2.2.2h.2c0,.1,1.1-.3,1.1-.3ZM21.3,21.4s.1-.3,0-.7c0,0-.1-.2-.3-.4.2,0,.7-.2.9-.3h0c.1,0,.2,0,.2,0,0,0,0,0,0,0,0,0,.3.3.2.6,0,0,0,.3,0,.3,0,0-.6.3-1.1.4ZM23.6,25.3c-.2-.1-.3-.2-.5-.3-.2,0-.4.1-.5.2,0,.2,0,.2-.1.4,0,0,0,.2,0,.2h0c0,0,0,.1,0,.2,0,.2,0,.4,0,.6.1.1.3.2.4.2,0,0,.2,0,.2.1h0s0,0,0,0c.1,0,.3,0,.3,0,0,0,.2-.2.2-.2,0,0,0,0,0,0,0,0,0-.1,0-.4,0-.1,0-.2,0-.3h0c0-.1,0-.2,0-.3,0,0,0-.2-.1-.3,0,0-.1-.1-.2-.2h0s0,0-.1,0ZM21.4,23.1h-.4c0,.1,0-.3,0-.3l1.2-.5v.4c0,0-.3.1-.3.1,0,0,0,0,0,0v.6c0,0-.3.1-.3.1v-.5c0,0,0,0,0,0Z"/>
</svg>