<svg width="500" height="154" version="1.1" viewBox="0 0 500 154" xmlns="http://www.w3.org/2000/svg">
 <g transform="matrix(1.11 0 0 1.11 8.1936e-6 .23777)">
  <path d="m103.42 118.9c-2.12-5.69-4.71-12.71-6.91-19.97-4.14-13.62-7.57-26.77-7.48-26.84 2.65-1.76 26.34-17.87 43.46-27.63 0.26-0.15 5.29-2.97 5.78-6.49 0.12-0.96 0-1.92-0.31-2.83-0.85-2.56-3.02-4.86-9.1-5.24-4.78-0.36-13.13-0.88-22.36-0.37-9.01 0.31-18.63 1.29-25.84 2.5 0 0-2.87-17.63-3.9-24.88-0.06-0.46-0.55-3.21-1.28-4.37-0.75-1.19-1.99-2.3-4.01-2.66-2.16-0.39-3.71 0.19-4.79 0.95-1.12 0.8-2.62 3.02-3.02 3.59-4.59 6.45-17.5 25.53-23.96 36.43 0 0-20.11 6.18-32.36 11.28-3.61 1.5-3.96 3.31-4.05 4.28-0.07 0.71-0.03 2.56 2.82 4.95 3.58 3 14.78 12.25 14.78 12.25-3.96 6.27-19.19 37.34-20.67 45.98-0.42 2.5-0.38 5.07 1.42 7.43 1.12 1.48 3.17 2.52 5.3 2.6 2.59 0.04 6.13-2.71 7.64-3.79 12.11-8.67 35.79-26.83 35.79-26.83 8.92 7.99 27.75 25.25 37.72 34.5 1.16 1.07 4.84 4.49 8.42 4.56 6.81 0.2 9.03-5.64 9.36-7.67 0.55-4.69-1.78-9.9-2.47-11.73zm-92.6-60.86c-0.28-0.23-1.18-0.91-1.13-1.82 0.02-0.42 0.26-0.85 0.8-1.22 0.2-0.14 0.95-0.45 1.1-0.51 2.1-0.78 11.5-4.16 24.31-7.25-3.3 5.78-5.53 9.38-7.07 12.08-3.58 6.24-3.55 6.48-5.01 9.04 0 0-10.46-8.27-13.01-10.33zm5.75 49.99c-0.32 0.22-1.57 1.05-1.91 1.22-2.68 1.32-3.23-0.29-3.41-0.96-0.32-1.31 0.79-3.65 0.92-3.91 2.54-5.54 12.77-27.16 12.77-27.16s12.67 10.82 15.8 13.57c0 0-18.3 13.22-24.17 17.24zm65.49-7.97c2.11 7.22 4.53 14.78 5.72 18.47 0.31 0.95 0.37 1.89 0.04 2.46-0.3 0.52-0.95 0.73-1.79 0.34-0.35-0.16-1.37-0.97-1.47-1.05-4.61-4.06-28.56-25.08-28.56-25.08l20.67-14.62s2.69 10.24 5.39 19.48zm-35.93-13.28s-17.32-14.43-18.25-15.21c0 0 10.97-20.57 14.39-25.8 2.1-0.58 18.21-3.55 25.8-4.45 0 0 2.26 12.49 5.63 26.87 0 0-22.32 14.81-27.58 18.59zm48.23-47.88c7.43-0.36 15.27-0.42 15.92-0.41 1.87 0.02 3.42 0.19 3.72 1.01 0.38 1.07-0.46 2.32-1.81 3.27-0.29 0.21-4.75 3.15-9.55 6.38-7.33 4.95-16.51 10.95-16.51 10.95 0.05 0.18-3.5-15.98-4.18-20.32 0 0 6.12-0.57 12.42-0.89zm-33.77-21.06c0.15-0.2 1.38-1.74 2.27-1.74s1.23 1.07 1.33 1.69c0.22 1.36 0.5 3.33 1.01 6.54 0.76 4.69 1.67 10.11 1.67 10.11-4.96 0.98-16.82 3.76-20.74 4.88 4.18-6.85 11.93-18.26 14.45-21.47z" fill="#316094"/>
  <path d="m403.89 93.615c0-13.86 9.56-23.42 23.28-23.42s23.28 9.63 23.28 23.42-9.63 23.42-23.28 23.42-23.28-9.49-23.28-23.42zm36.45 0c0-9.91-5.27-15.45-13.17-15.45s-13.17 5.47-13.17 15.45 5.34 15.52 13.17 15.52 13.17-5.47 13.17-15.52zm-85.65-22.94h10.19l9.15 23.84c1.32 3.33 2.36 6.31 3.26 9.01h0.14c0.9-2.63 1.94-5.68 3.26-9.08l9.15-23.77h10.19l-18.64 46.01h-8.04l-18.64-46.01zm-15.17 0h9.49v45.67h-9.49zm-29.31 8.04h-13.31v-8.04h37.28l-2.49 8.04h-11.99v37.63h-9.49zm-28.97-8.04h9.49v45.67h-9.49zm-36.45 35.07c2.91 1.94 6.38 3.4 10.39 3.4 3.53 0 7.07-1.25 7.07-4.71 0-8.25-19.54-7.21-19.54-21.21 0-6.86 5.47-13.03 15.31-13.03 4.85 0 8.94 1.11 11.57 2.43v8.52c-3.95-1.94-7.62-2.98-11.3-2.98-2.91 0-5.47 1.04-5.47 4.23 0 7.76 19.54 6.65 19.54 21.21 0 8.32-7.28 13.44-16.84 13.44-5.34 0-10.67-1.45-14.34-4.16l3.6-7.14zm-56.96-12.13c0-13.86 9.56-23.42 23.28-23.42s23.28 9.63 23.28 23.42-9.63 23.42-23.28 23.42-23.28-9.49-23.28-23.42zm36.45 0c0-9.91-5.27-15.45-13.17-15.45s-13.17 5.47-13.17 15.45 5.34 15.52 13.17 15.52 13.17-5.47 13.17-15.52zm-73.45-22.94h11.92c4.16 0 7.62 0.55 10.33 1.94 4.99 2.36 7.69 6.86 7.69 13.17 0 5.34-2.29 11.02-9.08 13.65-2.56 0.97-5.75 1.59-9.77 1.59h-1.59v15.31h-9.49v-45.67zm11.64 22.66c2.01 0 3.67-0.28 4.92-0.9 2.43-1.11 3.53-3.46 3.53-6.65 0-2.63-1.04-4.99-3.33-6.38-1.32-0.76-2.98-1.04-5.27-1.04h-2.01v14.97h2.15z" fill="#003869"/>
  <path d="m316.9 49.425c0.03 3.12 1.96 5.42 5.22 5.42 1.61 0 2.98-0.49 4.13-1.12l0.95 2.14c-1.54 0.98-3.54 1.51-5.43 1.51-5.5 0-8.02-4.03-8.02-8.75 0-5.04 2.76-8.58 7-8.58s6.83 3.32 6.83 8.61v0.77zm7.49-2.31c-0.04-2.31-1.16-4.62-3.64-4.62s-3.82 2.1-3.85 4.62zm-30.17 1.82c0-5.32 3.82-8.89 8.72-8.89 0.87 0 1.79 0.07 2.63 0.31v-8.12h3.08v23.98c-1.29 0.7-3.43 1.16-5.53 1.16-4.94 0-8.89-2.91-8.89-8.44zm11.34 5.43v-11.34c-0.77-0.25-1.37-0.39-2.42-0.39-3.18 0-5.74 2.24-5.74 6.23 0 3.64 2.2 5.88 5.78 5.88 0.77 0 1.75-0.1 2.38-0.38zm-17.29 0.87c-1.26 1.19-2.87 2.14-4.94 2.14-3.05 0-5.32-1.99-5.32-5.18 0-2.2 1.12-3.68 2.8-4.48 1.15-0.56 2.49-0.77 4.17-0.84l3.08-0.1v-0.88c0-2.35-1.43-3.36-3.43-3.36-1.89 0-3.33 0.6-4.52 1.3l-1.08-2.14c1.92-1.16 4.03-1.64 5.98-1.64 3.75 0 6.13 1.79 6.13 5.78v6.02c0 2.84 0.1 4.34 0.31 5.18h-2.66l-0.52-1.79zm-2.91-6.16c-1.33 0.04-2.2 0.25-2.91 0.6-0.87 0.49-1.29 1.33-1.29 2.35 0 1.71 1.12 2.83 2.87 2.83 1.93 0 3.29-1.15 4.03-1.89v-3.99zm-25.02-0.14c0-5.32 3.82-8.89 8.72-8.89 0.87 0 1.79 0.07 2.63 0.31v-8.12h3.08v23.98c-1.29 0.7-3.43 1.16-5.53 1.16-4.94 0-8.89-2.91-8.89-8.44zm11.34 5.43v-11.34c-0.77-0.25-1.37-0.39-2.42-0.39-3.18 0-5.74 2.24-5.74 6.23 0 3.64 2.2 5.88 5.78 5.88 0.77 0 1.75-0.1 2.38-0.38zm-18.3-19.29c0-1.08 0.81-1.96 1.96-1.96s2.03 0.84 2.03 1.96-0.87 1.99-2.03 1.99-1.96-0.87-1.96-1.99zm0.42 5.39h3.08v16.56h-3.08zm-14 13.12c1.05 0.63 2.49 1.26 4.27 1.26s3.36-0.66 3.36-2.38c0-3.36-7.77-2.24-7.77-7.74 0-2.63 2.07-4.69 5.81-4.69 1.64 0 3.15 0.35 4.34 0.8v2.66c-1.19-0.53-2.56-0.95-4.2-0.95-1.54 0-2.91 0.46-2.91 2.03 0 3.36 7.77 2.17 7.77 7.84 0 3.4-2.87 4.94-6.3 4.94-2.31 0-4.2-0.74-5.36-1.47l0.98-2.31zm-10.5-13.12h2.59l0.35 2.03c1.75-1.86 3.12-2.45 4.66-2.45 0.7 0 1.47 0.17 1.96 0.49l-1.08 2.73c-0.52-0.28-1.05-0.42-1.61-0.42-1.15 0-2.24 0.63-3.78 2.14v12.04h-3.08v-16.56zm-13.86 8.96c0.03 3.12 1.96 5.42 5.22 5.42 1.61 0 2.98-0.49 4.13-1.12l0.95 2.14c-1.54 0.98-3.54 1.51-5.43 1.51-5.5 0-8.02-4.03-8.02-8.75 0-5.04 2.76-8.58 7-8.58s6.83 3.32 6.83 8.61v0.77zm7.49-2.31c-0.04-2.31-1.16-4.62-3.64-4.62s-3.82 2.1-3.85 4.62zm-27.17-6.65h3.22l4.59 12.6h0.07l4.45-12.6h3.18l-6.48 16.66h-2.49l-6.55-16.66zm-5.91-5.39c0-1.08 0.81-1.96 1.96-1.96s2.03 0.84 2.03 1.96-0.87 1.99-2.03 1.99-1.96-0.87-1.96-1.99zm0.42 5.39h3.08v16.56h-3.08zm-17.99 0h2.59l0.38 2.03c1.79-1.47 3.64-2.45 5.74-2.45 2.63 0 5.04 1.54 5.04 5.88v11.1h-3.08v-10.08c0-2.35-0.56-4.17-2.84-4.17-1.68 0-3.29 0.98-4.76 2.24v12.01h-3.08v-16.56zm-21.74 12.14c-0.42-1.12-0.63-2.45-0.63-3.95v-14.7h3.12v14.46c0 1.19 0.14 2.28 0.53 3.15 0.8 2.03 2.56 3.15 5.25 3.15s4.48-1.12 5.29-3.15c0.35-0.87 0.49-1.96 0.49-3.26v-14.35h3.12v14.7c0 1.54-0.21 2.91-0.7 4.03-1.23 3.08-4.06 4.69-8.19 4.69s-7.04-1.64-8.26-4.76z" fill="#193965"/>
 </g>
</svg>
