<?xml version="1.0" encoding="utf-8"?>
<!-- Generator: Adobe Illustrator 27.0.0, SVG Export Plug-In . SVG Version: 6.00 Build 0)  -->
<svg version="1.1" id="Camada_1" xmlns="http://www.w3.org/2000/svg" xmlns:xlink="http://www.w3.org/1999/xlink" x="0px" y="0px"
	 viewBox="0 0 370.47 107.66" style="enable-background:new 0 0 370.47 107.66;" xml:space="preserve">
<style type="text/css">
	.st0{fill-rule:evenodd;clip-rule:evenodd;fill:#141414;}
</style>
<path class="st0" d="M34.47,73.37L44.87,41.2c0.72-2.21,1.89-4.1,3.49-5.67c1.59-1.57,3.37-2.35,5.31-2.35
	c2.91,0,5.48,0.77,7.71,2.28c2.22,1.52,3.34,3.61,3.34,6.3c0,2.42-0.61,5.33-1.82,8.72l-16.57,42.5c-1.35,3.66-2.86,6.42-4.54,8.27
	c-1.66,1.86-4.09,2.78-7.32,2.78c-5.13,0-8.86-3.18-11.16-9.55L5.42,48.15c-0.63-1.75-0.94-3.88-0.94-6.38
	c0-2.71,1.12-4.82,3.34-6.32c2.24-1.52,4.8-2.27,7.71-2.27c1.91,0,3.6,0.78,5.1,2.33c1.51,1.55,2.61,3.4,3.32,5.55L34.47,73.37
	L34.47,73.37z M60.76,68.6c0-4.73,0.72-9.3,2.17-13.64c1.45-4.36,3.62-8.17,6.49-11.42c3.04-3.42,6.64-6.1,10.82-8.02
	c4.16-1.92,8.45-2.89,12.89-2.89c4.37,0,8.66,0.97,12.87,2.91c4.22,1.94,7.81,4.6,10.79,8c2.89,3.3,5.05,7.1,6.44,11.41
	c1.4,4.29,2.1,8.85,2.1,13.66c0,4.73-0.71,9.23-2.1,13.48c-1.4,4.27-3.55,8.09-6.44,11.43c-2.94,3.4-6.51,6.06-10.7,8
	c-4.19,1.94-8.47,2.91-12.82,2.91c-4.47,0-8.81-0.97-13.02-2.89c-4.21-1.92-7.81-4.6-10.82-8.02C63.65,87.16,60.76,78.85,60.76,68.6
	L60.76,68.6z M79.83,68.58c0,2.71,0.49,5.4,1.5,8.05c0.99,2.67,2.47,4.85,4.42,6.56c1.96,1.72,4.27,2.57,6.95,2.57
	c2.81,0,5.25-0.85,7.3-2.54c2.07-1.68,3.65-3.85,4.74-6.52c1.1-2.66,1.64-5.36,1.64-8.12c0-2.76-0.54-5.5-1.63-8.19
	c-1.07-2.71-2.65-4.89-4.74-6.57c-2.07-1.69-4.5-2.54-7.32-2.54c-4.03,0-7.17,1.79-9.45,5.38C80.96,60.24,79.83,64.22,79.83,68.58
	L79.83,68.58z M145.17,40.13c2.71-2.62,5.43-4.5,8.11-5.65c2.68-1.14,5.85-1.72,9.52-1.72c6.81,0,12.46,2.01,16.98,6.03
	c2.7,2.44,4.54,5.16,5.51,8.19c0.97,3.03,1.46,6.69,1.46,11v34.89c0,3.18-0.85,5.84-2.58,7.97c-1.73,2.13-4.11,3.2-7.15,3.2
	c-2.93,0-5.26-1.09-7-3.25c-1.73-2.16-2.6-4.8-2.6-7.93V62.57c0-3.63-0.97-6.64-2.93-9.04c-1.94-2.4-4.65-3.61-8.15-3.61
	c-1.99,0-3.8,0.56-5.42,1.67c-1.63,1.11-2.89,2.57-3.81,4.37c-0.92,1.81-1.38,3.75-1.38,5.81v31.07c0,3.2-0.85,5.86-2.58,7.99
	c-1.73,2.13-4.11,3.2-7.15,3.2c-2.93,0-5.26-1.07-7-3.24c-1.73-2.16-2.6-4.82-2.6-7.93V44.9c0-3.18,0.81-5.89,2.42-8.14
	c1.63-2.25,3.91-3.44,6.91-3.58C140.19,33.18,143.34,35.5,145.17,40.13L145.17,40.13z M234.57,39.02V14.23
	c0-3.12,0.85-5.74,2.58-7.85c1.73-2.09,4.11-3.15,7.15-3.15c2.98,0,5.33,1.06,7.04,3.15c1.71,2.09,2.56,4.72,2.56,7.85v78.36
	c0,3.22-0.82,5.92-2.45,8.14c-1.64,2.2-3.98,3.3-6.99,3.3c-2.53,0-4.52-0.65-6-1.96c-1.46-1.31-2.66-3.3-3.6-5.98
	c-2.1,2.96-4.54,5.07-7.3,6.38c-2.76,1.29-5.98,1.94-9.68,1.94c-4.29,0-8.32-1.14-12.12-3.41c-3.78-2.28-6.99-5.31-9.6-9.13
	c-4.82-7.25-7.22-15.66-7.22-25.22c0-4.77,1.1-9.6,3.29-14.52c2.2-4.94,5.05-8.97,8.57-12.14c5.41-4.92,11.62-7.39,18.64-7.39
	C224.5,32.62,229.54,34.75,234.57,39.02L234.57,39.02z M208.29,67.61c0,4.49,1.22,8.48,3.63,11.95c2.42,3.49,5.67,5.23,9.78,5.23
	c2.71,0,5.06-0.85,7.04-2.55c1.95-1.69,3.45-3.88,4.45-6.57c1-2.67,1.51-5.41,1.51-8.17c0-2.74-0.51-5.43-1.51-8.09
	c-1-2.67-2.5-4.85-4.45-6.54c-1.97-1.7-4.33-2.55-7.04-2.55c-2.83,0-5.24,0.83-7.28,2.5c-2.04,1.65-3.57,3.81-4.59,6.47
	C208.8,61.92,208.29,64.72,208.29,67.61L208.29,67.61z M276.93,75.12c1.35,4.02,3.27,6.91,5.77,8.72c2.7,2.09,5.74,3.15,9.09,3.15
	c3.76,0,7.41-0.9,10.92-2.72l5.52-2.86c0.92-0.49,2.15-0.82,3.7-0.97c1.37,0,2.7,0.39,4.01,1.14c1.3,0.75,2.33,1.77,3.11,3.07
	c0.77,1.28,1.17,2.61,1.17,3.98c0,3.75-2.6,7.15-7.78,10.22c-6.31,3.73-13.55,5.59-21.7,5.59c-5.36,0-10.42-1.09-15.18-3.25
	c-4.77-2.18-8.83-5.36-12.2-9.55c-4.82-6.04-7.22-13.86-7.22-23.44c0-6.39,1.46-12.31,4.39-17.76c2.91-5.45,6.92-9.79,12.04-12.99
	c5.11-3.2,10.72-4.8,16.84-4.8c5.87,0,11.26,1.52,16.16,4.53c4.9,3.01,8.75,7.08,11.52,12.23c2.78,5.14,4.18,10.69,4.18,16.63
	c0,3.17-0.64,5.48-1.91,6.93c-1.28,1.45-3.4,2.18-6.38,2.18H276.93L276.93,75.12z M302.33,61.48c-2.05-8.33-6.44-12.5-13.17-12.5
	c-5.94,0-10.23,4.17-12.87,12.5H302.33L302.33,61.48z M342.84,40.27c4.62-5,8.96-7.51,13-7.51c2.78,0,5.16,0.92,7.15,2.76
	c1.99,1.84,2.99,4.15,2.99,6.91c0,2.91-0.8,4.99-2.43,6.27c-1.61,1.26-4.09,2.45-7.46,3.56c-4.7,1.63-8.12,3.32-10.23,5.06
	c-2.02,1.63-3.02,4.36-3.02,8.17v27.38c0,3.18-0.86,5.84-2.58,7.97c-1.73,2.13-4.11,3.2-7.15,3.2c-2.93,0-5.26-1.07-7-3.24
	c-1.73-2.16-2.6-4.82-2.6-7.93V44.62c0-3.61,0.79-6.3,2.35-8.05c1.92-2.26,4.24-3.39,6.97-3.39
	C337.33,33.18,340.67,35.55,342.84,40.27L342.84,40.27z M365.99,97.7c0,1.21-0.3,2.33-0.9,3.36c-0.6,1.03-1.41,1.85-2.45,2.45
	c-1.04,0.61-2.17,0.91-3.39,0.91c-1.21,0-2.34-0.3-3.38-0.89c-1.04-0.6-1.86-1.42-2.47-2.47c-0.61-1.03-0.91-2.15-0.91-3.36
	c0-1.88,0.66-3.48,1.97-4.8c1.32-1.32,2.91-1.98,4.78-1.98c1.86,0,3.46,0.66,4.78,1.99C365.34,94.22,365.99,95.82,365.99,97.7
	L365.99,97.7z M364.5,97.7c0-0.96-0.24-1.85-0.7-2.67c-0.47-0.82-1.11-1.48-1.94-1.97c-0.81-0.48-1.67-0.72-2.61-0.72
	c-0.93,0-1.8,0.24-2.61,0.73c-0.79,0.47-1.42,1.12-1.9,1.95c-0.48,0.82-0.72,1.72-0.72,2.68c0,0.94,0.24,1.82,0.7,2.64
	c0.47,0.82,1.11,1.47,1.93,1.95c0.8,0.48,1.66,0.71,2.6,0.71c0.94,0,1.81-0.24,2.62-0.71c0.8-0.47,1.44-1.11,1.91-1.93
	C364.26,99.55,364.5,98.66,364.5,97.7L364.5,97.7z M362.17,96.13c0,1.25-0.63,1.96-1.9,2.14l1.68,2.57c0.1,0.16,0.15,0.3,0.15,0.45
	c0,0.17-0.23,0.28-0.68,0.32c-0.32-0.02-0.56-0.17-0.73-0.43l-1.79-2.83h-1.21v2.68c0,0.36-0.2,0.56-0.61,0.58
	c-0.39-0.02-0.58-0.21-0.58-0.58v-6.76c0-0.25,0.13-0.37,0.39-0.37h2.48c1.28,0,2.11,0.31,2.5,0.92
	C362.07,95.14,362.17,95.58,362.17,96.13L362.17,96.13z M360.96,96.06c0-0.68-0.58-1.02-1.75-1.02h-1.53v2.18h1.44
	c0.81,0,1.34-0.13,1.59-0.4C360.88,96.65,360.96,96.4,360.96,96.06L360.96,96.06z"/>
</svg>
