<svg version="1.0" xmlns="http://www.w3.org/2000/svg" x="0" y="0" viewBox="0 0 852 562.4" xml:space="preserve" enable-background="new 0 0 852 562.4" width="2500" height="1650"><path d="M212.8 279.1c7.9-4.2 13.7-11.3 13.7-20.8 0-16.5-12.7-25.9-34.9-25.9h-41.9v97.2H195c21.8 0 35.3-10.5 35.3-27.5-.2-11.4-7.7-18.9-17.5-23m-20.9-3.7h-26.1v-35h24.6c13.8 0 19.7 5.4 19.7 17.9 0 12.1-5.4 17.1-18.2 17.1m-26.1 46.1v-38h25.8c8.2 0 21.9 2.5 21.9 18.9 0 13.4-5.9 19.1-19.9 19.1zM51 288c0-23.2 17.7-42 39.5-42s39.5 18.8 39.5 42-17.7 42-39.5 42S51 311.2 51 288m15.3 0c0 21.2 9 33.9 24.2 33.9 15.1 0 24.1-12.7 24.1-33.9s-8.9-33.9-24.1-33.9-24.2 12.7-24.2 33.9m177.5 0c0-23.2 17.7-42 39.5-42s39.5 18.8 39.5 42-17.7 42-39.5 42-39.5-18.8-39.5-42m15.3 0c0 21.2 9 33.9 24.2 33.9 15.1 0 24.1-12.7 24.1-33.9s-9-33.9-24.1-33.9-24.2 12.7-24.2 33.9m96-32.9h-28.9v-8h72.5v8h-29v73.8h-14.6zm72.9-8h-14.6v81.7H428zm55.7 74.6c6.5 0 18.1-2 23.1-15.8l1.4-4 7.1 3.5-1.2 3.2c-4.9 13.4-16.2 21.1-31 21.1-22.3 0-39-18-39-41.8 0-23.5 17.1-42 39-42 14.7 0 26 7.8 30.8 21.3l1.1 3.2-7.1 3.7-1.4-4c-3.6-10.1-11.9-15.9-22.9-15.9-15.2 0-24.3 12.6-24.3 33.7s9.2 33.8 24.4 33.8M669 314l-4.2-12.4c-1.7-4.6-4.9-8.4-9.1-10.9 7.6-3.4 14.2-9.8 14.2-20 0-14.8-11.8-23.6-31.6-23.6h-29.8v81.7h14.7V294H636c9.4 0 12.4 3.8 15 11.2l4.1 11.8c1 3.6 2.6 7 4.6 10.2l1.1 1.6h19.7l-7-6.5c-2.1-2.4-3.7-5.2-4.5-8.3m-45.8-59h14.1c12.3 0 17.6 4.7 17.6 15.7 0 10.6-5.4 15.3-17.5 15.3h-14.2zm68.1-8H706v81.7h-14.6zm70.2-1.1c-21.8 0-39.5 18.8-39.5 42s17.8 42 39.5 42S801 311.2 801 288s-17.7-42-39.5-42.1m0 8c15.1 0 24.1 12.7 24.1 33.9s-9 33.9-24.1 33.9-24.2-12.6-24.2-33.8 9.1-33.9 24.2-34m-201.9-19.8h8.6l-6.7 15.8 35 78.9H581L568.7 301h-28.9l-12 27.7h-8.6zm-5.8 33.7L543.1 293H565z"/></svg>