<?xml version="1.0" encoding="UTF-8"?>
<svg id="Layer_1" xmlns="http://www.w3.org/2000/svg" version="1.1" xmlns:xlink="http://www.w3.org/1999/xlink" viewBox="0 0 120 53.8">
  <!-- Generator: Adobe Illustrator 30.4.0, SVG Export Plug-In . SVG Version: 2.1.4 Build 226)  -->
  <defs>
    <style>
      .st0 {
        fill: #fff;
      }

      .st1, .st2 {
        fill: none;
      }

      .st2 {
        fill-rule: evenodd;
      }

      .st3 {
        clip-path: url(#clippath);
      }

      .st4 {
        fill: #00d15f;
      }
    </style>
    <clipPath id="clippath">
      <polygon class="st1" points="11 49 109 49 109 4.8 11 4.8 11 49 11 49"/>
    </clipPath>
  </defs>
  <polygon class="st2" points="-5.8 59.4 125.8 59.4 125.8 0 -5.8 0 -5.8 59.4 -5.8 59.4"/>
  <g class="st3">
    <path class="st4" d="M23.6,20.4c-.5.5-.8,1.1-.8,1.8v16h68.7c.7,0,1.3-.3,1.8-.7l3.8-3.7c.5-.5.8-1.1.8-1.8V15.9H29.3c-.7,0-1.3.3-1.8.7l-3.8,3.8h0Z"/>
    <path class="st0" d="M33.4,32.4l-5.2-10.7h2.3s3.7,7.7,3.8,8.1h0c0-.4,3.8-8.1,3.8-8.1h2.3l-5.2,10.8h-1.9Z"/>
    <path class="st0" d="M50.6,27.9h-8.4c.3,1.7,1.6,2.8,3.3,2.8s2.3-.5,2.7-1.5h2.2c-.7,2-2.5,3.4-4.9,3.4s-5.5-2.3-5.5-5.6,2.3-5.6,5.5-5.6,5.2,2.4,5.2,5.6,0,.5,0,.8h0ZM42.2,26.2h6.2c-.1-1.5-1.3-2.7-3-2.7-1.7,0-2.9,1.1-3.2,2.7h0Z"/>
    <path class="st0" d="M62.1,27.9h-8.4c.3,1.7,1.6,2.8,3.3,2.8s2.3-.5,2.7-1.5h2.2c-.7,2-2.5,3.4-4.9,3.4s-5.5-2.3-5.5-5.6,2.3-5.6,5.5-5.6,5.2,2.4,5.2,5.6,0,.5,0,.8h0ZM53.7,26.2h6.2c-.1-1.5-1.3-2.7-3-2.7-1.7,0-2.9,1.1-3.2,2.7h0Z"/>
    <path class="st0" d="M73.9,27.1v5.4h-1.9l-.2-1.7c-.8,1.2-2.3,1.9-3.6,1.9-3,0-5.2-2.4-5.2-5.6s2.4-5.6,5.5-5.6c2.8,0,5.4,2,5.4,5.6h0ZM71.7,27.1c0-2.4-1.6-3.7-3.3-3.7s-3.4,1.5-3.4,3.7,1.4,3.7,3.4,3.7,3.3-1.4,3.3-3.7h0Z"/>
    <path class="st0" d="M75.3,32.4v-6.4c0-2.7,1.7-4.6,4.4-4.6s3.3,1.4,3.5,2h0c.2-.5,1.3-2,3.5-2s4.4,1.9,4.4,4.6v6.4h-2.1v-6.2c0-1.7-.8-2.8-2.4-2.8s-2.4,1-2.4,2.8v6.2h-2.1v-6.2c0-1.8-.8-2.8-2.4-2.8s-2.4,1-2.4,2.8v6.2h-2.1Z"/>
  </g>
  <polygon class="st2" points="-5.8 0 125.8 0 125.8 59.4 -5.8 59.4 -5.8 0 -5.8 0"/>
</svg>