<?xml version="1.0" encoding="UTF-8"?>
<svg id="Layer_1" xmlns="http://www.w3.org/2000/svg" version="1.1" viewBox="0 0 120 53.8">
  <!-- Generator: Adobe Illustrator 29.8.6, SVG Export Plug-In . SVG Version: 2.1.1 Build 1)  -->
  <defs>
    <style>
      .st0 {
        fill: #6d6d6d;
        fill-rule: evenodd;
      }
    </style>
  </defs>
  <path class="st0" d="M28.1,31l2.2-6.8c.2-.5.4-.9.7-1.2s.7-.5,1.1-.5c.6,0,1.2.2,1.6.5.5.3.7.8.7,1.3s0,1.1-.4,1.8l-3.5,9c-.3.8-.6,1.4-1,1.8-.4.4-.9.6-1.5.6-1.1,0-1.9-.7-2.4-2l-3.8-9.8c-.1-.4-.2-.8-.2-1.4s.2-1,.7-1.3,1-.5,1.6-.5.8.2,1.1.5c.3.3.6.7.7,1.2l2.2,6.8h.2ZM33.6,30c0-1,.2-2,.5-2.9s.8-1.7,1.4-2.4c.6-.7,1.4-1.3,2.3-1.7.9-.4,1.8-.6,2.7-.6s1.8.2,2.7.6,1.7,1,2.3,1.7,1.1,1.5,1.4,2.4c.3.9.4,1.9.4,2.9s-.2,2-.4,2.9c-.3.9-.8,1.7-1.4,2.4-.6.7-1.4,1.3-2.3,1.7-.9.4-1.8.6-2.7.6s-1.9-.2-2.8-.6c-.9-.4-1.7-1-2.3-1.7-1.2-1.3-1.8-3.1-1.8-5.3h0ZM37.7,30c0,.6,0,1.1.3,1.7.2.6.5,1,.9,1.4s.9.5,1.5.5,1.1-.2,1.5-.5c.4-.4.8-.8,1-1.4s.3-1.1.3-1.7,0-1.2-.3-1.7c-.2-.6-.6-1-1-1.4s-1-.5-1.5-.5c-.9,0-1.5.4-2,1.1-.5.8-.7,1.6-.7,2.5h0ZM51.5,24c.6-.6,1.1-1,1.7-1.2.6-.2,1.2-.4,2-.4,1.4,0,2.6.4,3.6,1.3.6.5,1,1.1,1.2,1.7s.3,1.4.3,2.3v7.4c0,.7-.2,1.2-.5,1.7-.4.5-.9.7-1.5.7s-1.1-.2-1.5-.7-.6-1-.6-1.7v-6.4c0-.8-.2-1.4-.6-1.9-.4-.5-1-.8-1.7-.8s-.8.1-1.1.4c-.3.2-.6.5-.8.9s-.3.8-.3,1.2v6.6c0,.7-.2,1.2-.5,1.7s-.9.7-1.5.7-1.1-.2-1.5-.7-.6-1-.6-1.7v-10.2c0-.7.2-1.2.5-1.7s.8-.7,1.5-.8c.9,0,1.6.5,2,1.5h-.1ZM70.4,23.8v-5.2c0-.7.2-1.2.5-1.7.4-.4.9-.7,1.5-.7s1.1.2,1.5.7c.4.4.5,1,.5,1.7v16.6c0,.7-.2,1.3-.5,1.7-.3.5-.8.7-1.5.7s-1,0-1.3-.4c-.3-.3-.6-.7-.8-1.3-.4.6-1,1.1-1.5,1.4-.6.3-1.3.4-2,.4s-1.8-.2-2.6-.7c-.8-.5-1.5-1.1-2-1.9-1-1.5-1.5-3.3-1.5-5.3s.2-2,.7-3.1c.5-1,1.1-1.9,1.8-2.6,1.1-1,2.5-1.6,3.9-1.6s2.1.5,3.2,1.4h.1ZM64.9,29.8c0,1,.3,1.8.8,2.5s1.2,1.1,2.1,1.1,1.1-.2,1.5-.5c.4-.4.7-.8.9-1.4.2-.6.3-1.1.3-1.7s0-1.1-.3-1.7c-.2-.6-.5-1-.9-1.4s-.9-.5-1.5-.5-1.1.2-1.5.5-.8.8-1,1.4-.3,1.1-.3,1.8h0ZM79.4,31.4c.3.9.7,1.5,1.2,1.8.6.4,1.2.7,1.9.7s1.6-.2,2.3-.6l1.2-.6c.2,0,.5-.2.8-.2s.6,0,.8.2c.3.2.5.4.7.6.2.3.2.6.2.8,0,.8-.6,1.5-1.6,2.2-1.3.8-2.9,1.2-4.6,1.2s-2.2-.2-3.2-.7-1.9-1.1-2.6-2c-1-1.3-1.5-2.9-1.5-5s.3-2.6.9-3.8c.6-1.2,1.5-2.1,2.5-2.7,1.1-.7,2.3-1,3.6-1s2.4.3,3.4,1,1.9,1.5,2.4,2.6c.6,1.1.9,2.3.9,3.5s0,1.2-.4,1.5-.7.5-1.4.5h-7.6,0ZM84.8,28.5c-.4-1.8-1.4-2.6-2.8-2.6s-2.2.9-2.7,2.6h5.5ZM93.4,24c1-1.1,1.9-1.6,2.8-1.6s1.1.2,1.5.6.6.9.6,1.5-.2,1.1-.5,1.3c-.3.3-.9.5-1.6.8-1,.3-1.7.7-2.2,1.1-.4.3-.6.9-.6,1.7v5.8c0,.7-.2,1.2-.5,1.7-.4.5-.9.7-1.5.7s-1.1-.2-1.5-.7-.6-1-.6-1.7v-10.2c0-.8.2-1.3.5-1.7.4-.5.9-.7,1.5-.7,1,0,1.7.5,2.1,1.5h0ZM98.3,36.2c0,.3,0,.5-.2.7s-.3.4-.5.5-.5.2-.7.2-.5,0-.7-.2c-.2,0-.4-.3-.5-.5s-.2-.5-.2-.7c0-.4,0-.7.4-1s.6-.4,1-.4.7,0,1,.4c.3.3.4.6.4,1h0ZM97.9,36.2c0-.2,0-.4,0-.6,0-.2-.2-.3-.4-.4s-.4-.2-.6-.2-.4,0-.6.2c-.2,0-.3.2-.4.4s-.2.4-.2.6,0,.4,0,.6c0,.2.2.3.4.4s.4.2.6.2.4,0,.6-.2c.2,0,.3-.2.4-.4s.2-.4.2-.6h0ZM97.5,35.9c0,.3,0,.4-.4.5l.4.5h-.3l-.4-.6h-.3v.6s0,0,0,0c0,0,0,0,0,0v-1.4h.5c.3,0,.4,0,.5.2v.3h.2ZM97.2,35.8c0,0,0-.2-.4-.2h-.3v.5h.6v-.2h0Z"/>
</svg>